# File created by Blade
# Date/Time:  Thu Sep 25 18:58:07 2014
# Frame Rate: 120.000 fps
#------------------------------------------------------
:FULLY-SPECIFIED
:DEGREES
2636
root 1.302473 33.027198 0.990985 8.878188 1.083286 -0.356265
Spine -6.373442 2.559925 -2.409181
Head 12.190669 -14.206704 13.294340
LeftShoulder -23.319105 19.084754 23.661522
LeftArm 4.166721 -32.182092 -39.730672
LeftForeArm 21.471150 -0.000000 14.467715
LeftHand -38.357989 -0.000000 6.868728
LeftHandThumb1 -26.253704 0.000000 33.147579
RightShoulder -28.263531 9.438393 -38.799817
RightArm -32.005192 14.654498 32.548914
RightForeArm -36.355327 0.000000 16.971589
RightHand -20.378014 -0.000000 6.153511
RightHandThumb1 -24.326973 -0.000000 -32.862282
LeftUpLeg -4.183699 10.800462 4.071474
LeftLeg -2.110755 -0.000000 0.000000
LeftFoot -4.339238 -4.003974 -18.735997
LeftToeBase 9.207771 -0.000000 -0.000000
RightUpLeg -4.405189 -10.786452 -5.370178
RightLeg 0.512085 -0.000000 -0.000000
RightFoot -3.141136 -1.210116 3.991380
RightToeBase -2.807805 -0.000000 0.000000
2637
root 1.301186 33.027231 0.992059 8.877793 1.089325 -0.353156
Spine -6.373043 2.570011 -2.409570
Head 12.315150 -14.223164 13.234826
LeftShoulder -23.319716 19.101530 23.654975
LeftArm 4.091989 -32.230068 -39.741897
LeftForeArm 21.716615 -0.000000 14.577814
LeftHand -38.673965 -0.000000 6.657641
LeftHandThumb1 -26.253704 0.000000 33.147579
RightShoulder -28.304041 9.410211 -38.794555
RightArm -31.982194 14.695857 32.587233
RightForeArm -36.409749 -0.000000 16.849050
RightHand -20.265129 0.000000 5.918594
RightHandThumb1 -24.326973 -0.000000 -32.862282
LeftUpLeg -4.179340 10.799957 4.074289
LeftLeg -2.117833 -0.000000 0.000000
LeftFoot -4.313680 -4.012215 -18.748090
LeftToeBase 9.158035 -0.000000 -0.000000
RightUpLeg -4.398410 -10.759669 -5.376188
RightLeg 0.518594 -0.000000 -0.000000
RightFoot -3.187680 -1.247574 4.036144
RightToeBase -2.678207 -0.000000 0.000000
2638
root 1.299511 33.027036 0.993129 8.874636 1.101965 -0.349617
Spine -6.368709 2.574503 -2.408382
Head 12.435044 -14.221628 13.196188
LeftShoulder -23.325645 19.116995 23.630244
LeftArm 4.070705 -32.162542 -39.736079
LeftForeArm 21.778685 -0.000000 14.536734
LeftHand -38.513117 -0.000000 7.014248
LeftHandThumb1 -26.253704 0.000000 33.147579
RightShoulder -28.335964 9.393424 -38.766595
RightArm -31.984345 14.617730 32.649379
RightForeArm -36.392459 -0.000000 16.829187
RightHand -20.287065 -0.000000 5.986116
RightHandThumb1 -24.326973 -0.000000 -32.862282
LeftUpLeg -4.175181 10.793661 4.075377
LeftLeg -2.119226 -0.000000 0.000000
LeftFoot -4.321656 -4.021727 -18.721841
LeftToeBase 9.188029 -0.000000 -0.000000
RightUpLeg -4.389084 -10.769809 -5.374321
RightLeg 0.506457 -0.000000 -0.000000
RightFoot -3.162147 -1.241945 4.003556
RightToeBase -2.769342 -0.000000 0.000000
2639
root 1.298372 33.026364 0.994003 8.875640 1.114757 -0.349135
Spine -6.367985 2.568920 -2.395639
Head 12.551439 -14.210654 13.131027
LeftShoulder -23.327546 19.139151 23.618126
LeftArm 4.013754 -32.122866 -39.739387
LeftForeArm 21.700300 -0.000000 14.498201
LeftHand -38.112333 -0.000000 7.082383
LeftHandThumb1 -26.253704 0.000000 33.147579
RightShoulder -28.374614 9.381090 -38.797365
RightArm -31.950617 14.576653 32.736225
RightForeArm -36.433573 -0.000000 16.664935
RightHand -20.174328 -0.000000 5.882122
RightHandThumb1 -24.326973 -0.000000 -32.862282
LeftUpLeg -4.174508 10.784357 4.077729
LeftLeg -2.125465 -0.000000 0.000000
LeftFoot -4.316828 -4.032149 -18.721758
LeftToeBase 9.164744 -0.000000 -0.000000
RightUpLeg -4.381299 -10.750573 -5.373710
RightLeg 0.498741 -0.000000 -0.000000
RightFoot -3.177251 -1.270609 4.005397
RightToeBase -2.751384 -0.000000 0.000000
2640
root 1.297617 33.025941 0.995131 8.876752 1.129218 -0.343523
Spine -6.372425 2.553345 -2.385202
Head 12.680477 -14.170201 13.070560
LeftShoulder -23.345971 19.183993 23.588256
LeftArm 4.029237 -32.040705 -39.756985
LeftForeArm 21.651541 -0.000000 14.442528
LeftHand -38.547017 -0.000000 6.908405
LeftHandThumb1 -26.253704 0.000000 33.147579
RightShoulder -28.399283 9.348208 -38.785610
RightArm -31.896101 14.565695 32.778478
RightForeArm -36.420210 -0.000000 16.551878
RightHand -20.082046 0.000000 5.986509
RightHandThumb1 -24.326973 -0.000000 -32.862282
LeftUpLeg -4.174452 10.771479 4.075757
LeftLeg -2.127576 -0.000000 0.000000
LeftFoot -4.319039 -4.025012 -18.747612
LeftToeBase 9.182823 -0.000000 -0.000000
RightUpLeg -4.373455 -10.752487 -5.377576
RightLeg 0.492066 -0.000000 -0.000000
RightFoot -3.181511 -1.278823 4.018805
RightToeBase -2.781984 -0.000000 0.000000
2641
root 1.297327 33.025331 0.995548 8.878196 1.133353 -0.337480
Spine -6.379952 2.557284 -2.374963
Head 12.814693 -14.135553 13.013468
LeftShoulder -23.351049 19.211983 23.558781
LeftArm 4.033451 -32.007999 -39.761057
LeftForeArm 21.560298 -0.000000 14.331663
LeftHand -38.696235 0.000000 6.782427
LeftHandThumb1 -26.253704 0.000000 33.147579
RightShoulder -28.410097 9.340151 -38.798272
RightArm -31.898193 14.531156 32.826539
RightForeArm -36.122879 0.000000 16.508728
RightHand -20.227379 -0.000000 6.150005
RightHandThumb1 -24.326973 -0.000000 -32.862282
LeftUpLeg -4.176685 10.766912 4.071644
LeftLeg -2.125734 -0.000000 0.000000
LeftFoot -4.321706 -4.033734 -18.775775
LeftToeBase 9.176598 -0.000000 -0.000000
RightUpLeg -4.371152 -10.715086 -5.389670
RightLeg 0.503302 -0.000000 -0.000000
RightFoot -3.201906 -1.356084 3.969539
RightToeBase -2.784919 -0.000000 0.000000
2642
root 1.297447 33.024921 0.998007 8.873618 1.138070 -0.329709
Spine -6.386089 2.559620 -2.362634
Head 12.936782 -14.117720 12.927209
LeftShoulder -23.400202 19.247560 23.501132
LeftArm 4.129809 -31.920285 -39.766200
LeftForeArm 21.307963 -0.000000 14.142373
LeftHand -38.542554 -0.000000 6.827871
LeftHandThumb1 -26.253704 0.000000 33.147579
RightShoulder -28.417340 9.287139 -38.806300
RightArm -31.861384 14.534161 32.894993
RightForeArm -35.891069 -0.000000 16.414961
RightHand -20.263481 -0.000000 5.986026
RightHandThumb1 -24.326973 -0.000000 -32.862282
LeftUpLeg -4.162901 10.757515 4.066066
LeftLeg -2.136473 -0.000000 0.000000
LeftFoot -4.323497 -4.035661 -18.754706
LeftToeBase 9.204280 -0.000000 -0.000000
RightUpLeg -4.362129 -10.714000 -5.395879
RightLeg 0.495689 -0.000000 -0.000000
RightFoot -3.208373 -1.326911 4.040219
RightToeBase -2.781204 -0.000000 0.000000
2643
root 1.297622 33.024369 0.999297 8.864980 1.141819 -0.320017
Spine -6.381993 2.574353 -2.358957
Head 13.040548 -14.133515 12.841289
LeftShoulder -23.422271 19.240167 23.487842
LeftArm 4.164392 -31.949800 -39.802802
LeftForeArm 21.189256 0.000000 14.078173
LeftHand -38.740910 -0.000000 6.671043
LeftHandThumb1 -26.253704 0.000000 33.147579
RightShoulder -28.422086 9.272024 -38.832577
RightArm -31.894152 14.538272 32.908902
RightForeArm -35.786246 0.000000 16.361734
RightHand -20.131908 -0.000000 6.116690
RightHandThumb1 -24.326973 -0.000000 -32.862282
LeftUpLeg -4.150588 10.753647 4.057801
LeftLeg -2.139091 -0.000000 0.000000
LeftFoot -4.332396 -4.023255 -18.750098
LeftToeBase 9.222151 -0.000000 -0.000000
RightUpLeg -4.349375 -10.707905 -5.407665
RightLeg 0.493738 -0.000000 -0.000000
RightFoot -3.225747 -1.328734 4.029750
RightToeBase -2.751242 -0.000000 0.000000
2644
root 1.297933 33.024315 1.001782 8.850697 1.132231 -0.314931
Spine -6.380534 2.611974 -2.362065
Head 13.140687 -14.166196 12.784749
LeftShoulder -23.413028 19.214580 23.489904
LeftArm 4.108091 -32.162942 -39.811673
LeftForeArm 21.458646 -0.000000 14.143517
LeftHand -38.776566 -0.000000 6.047579
LeftHandThumb1 -26.253704 0.000000 33.147579
RightShoulder -28.428285 9.252068 -38.821291
RightArm -31.890583 14.537141 32.906568
RightForeArm -35.628756 -0.000000 16.306938
RightHand -20.136534 -0.000000 6.189589
RightHandThumb1 -24.326973 -0.000000 -32.862282
LeftUpLeg -4.126325 10.772752 4.054851
LeftLeg -2.144881 -0.000000 0.000000
LeftFoot -4.313761 -4.047666 -18.741154
LeftToeBase 9.191193 -0.000000 -0.000000
RightUpLeg -4.330182 -10.672477 -5.423365
RightLeg 0.502056 -0.000000 -0.000000
RightFoot -3.232780 -1.390079 3.984015
RightToeBase -2.780287 -0.000000 0.000000
2645
root 1.298721 33.024400 1.004257 8.838771 1.132236 -0.309513
Spine -6.380481 2.630886 -2.363954
Head 13.235549 -14.189059 12.740248
LeftShoulder -23.421561 19.226334 23.496547
LeftArm 4.113194 -32.252490 -39.887788
LeftForeArm 21.356534 -0.000000 14.233714
LeftHand -39.016726 -0.000000 5.903371
LeftHandThumb1 -26.253704 0.000000 33.147579
RightShoulder -28.425247 9.264592 -38.817960
RightArm -31.911562 14.576512 32.855342
RightForeArm -35.605260 -0.000000 16.242108
RightHand -20.061778 -0.000000 6.272977
RightHandThumb1 -24.326973 -0.000000 -32.862282
LeftUpLeg -4.109816 10.785378 4.049025
LeftLeg -2.147200 -0.000000 0.000000
LeftFoot -4.302897 -4.052296 -18.736766
LeftToeBase 9.145587 -0.000000 -0.000000
RightUpLeg -4.307623 -10.664327 -5.433759
RightLeg 0.490358 -0.000000 -0.000000
RightFoot -3.254787 -1.357190 4.074937
RightToeBase -2.693330 -0.000000 0.000000
2646
root 1.298946 33.024485 1.007389 8.825556 1.136269 -0.307160
Spine -6.374098 2.647051 -2.356949
Head 13.298701 -14.227595 12.661465
LeftShoulder -23.366713 19.115488 23.591752
LeftArm 3.944365 -32.129319 -39.884985
LeftForeArm 21.324948 -0.000000 14.199233
LeftHand -38.563981 -0.000000 5.942467
LeftHandThumb1 -26.253704 0.000000 33.147579
RightShoulder -28.448438 9.264232 -38.811121
RightArm -31.896949 14.578983 32.838749
RightForeArm -35.605876 -0.000000 16.244018
RightHand -20.103306 0.000000 6.368757
RightHandThumb1 -24.326973 -0.000000 -32.862282
LeftUpLeg -4.086959 10.780518 4.050783
LeftLeg -2.156319 -0.000000 0.000000
LeftFoot -4.299151 -4.058576 -18.758196
LeftToeBase 9.205830 -0.000000 -0.000000
RightUpLeg -4.285074 -10.670828 -5.435126
RightLeg 0.474226 -0.000000 -0.000000
RightFoot -3.220549 -1.357067 4.028199
RightToeBase -2.780297 -0.000000 0.000000
